<svg width="64" height="64" viewBox="0 0 64 64" fill="none" xmlns="http://www.w3.org/2000/svg">
<path d="M19.9492 48.9333L28.2159 55.3333C29.2826 56.4 31.6826 56.9333 33.2826 56.9333H43.4159C46.6159 56.9333 50.0826 54.5333 50.8826 51.3333L57.2826 31.8667C58.6159 28.1333 56.2159 24.9333 52.2159 24.9333H41.5492C39.9492 24.9333 38.6159 23.6 38.8826 21.7333L40.2159 13.2C40.7492 10.8 39.1492 8.13333 36.7492 7.33333C34.6159 6.53333 31.9492 7.6 30.8826 9.2L19.9492 25.4667" stroke="white" stroke-width="5" stroke-miterlimit="10"/>
<path d="M6.34766 48.9332V22.7998C6.34766 19.0665 7.94766 17.7332 11.681 17.7332H14.3477C18.081 17.7332 19.681 19.0665 19.681 22.7998V48.9332C19.681 52.6665 18.081 53.9998 14.3477 53.9998H11.681C7.94766 53.9998 6.34766 52.6665 6.34766 48.9332Z" stroke="white" stroke-width="5" stroke-linecap="round" stroke-linejoin="round"/>
</svg>
